# xmcd CD database file
#
# Track frame offsets:
#	150
#	20583
#	39995
#	70006
#	83015
#	96743
#	140743
#	169089
#	198187
#	223032
#	264055
#	283171
#
# Disc length: 3945 seconds
#
# Revision: 0
# Processed by: cddbd v1.5.2PL0 Copyright (c) Steve Scherf et al.
# Submitted via: CDex 1.70beta2
#
DISCID=ab0f670c
DTITLE=Various Artist - Down Home Groovin'
DYEAR=2008
DGENRE=Jazz
TTITLE0=Fried Neck Bones And Some Home Fries - Willie Bobo and Dan The Automator
TTITLE1=Soul Sauce - Cal Tjader and Fila Brazilla
TTITLE2=The Group - Dexter Gordon
TTITLE3=For Your Precious Love - Otis Redding
TTITLE4=Nothing Can Change This Love - Otis Redding
TTITLE5=Ruby - David "Fathead" Newman
TTITLE6=Drown In My Tears - David "Fathead" Newman
TTITLE7=Freedom Jazz Dance - David "Fathead" Newman
TTITLE8=Segment - Steve Turre
TTITLE9=Brother Ray - Steve Turre
TTITLE10=Cleopatra's Needle - Steve Turre
TTITLE11=634-5789 - Otis Redding
EXTD=YEAR: 2008
EXTT0=
EXTT1=
EXTT2=
EXTT3=
EXTT4=
EXTT5=
EXTT6=
EXTT7=
EXTT8=
EXTT9=
EXTT10=
EXTT11=
PLAYORDER=
